<svg xmlns="http://www.w3.org/2000/svg" width="373.155" height="110.563" viewBox="0 0 373.155 110.563">
  <g id="Grupo_3" data-name="Grupo 3" transform="translate(-910.174 -582.056)">
    <path id="Caminho_48" data-name="Caminho 48" d="M13.819,0h345.51a13.819,13.819,0,0,1,13.819,13.819V96.744a13.819,13.819,0,0,1-13.819,13.819H13.819A13.819,13.819,0,0,1,0,96.744V13.819A13.819,13.819,0,0,1,13.819,0Z" transform="translate(910.174 582.056)" fill="#040505" opacity="0"/>
    <path id="Caminho_30" data-name="Caminho 30" d="M583.377,456.89h-345.5a13.86,13.86,0,0,0-13.819,13.819v82.919a13.86,13.86,0,0,0,13.819,13.819h345.5A13.86,13.86,0,0,0,597.2,553.627V470.716A13.859,13.859,0,0,0,583.377,456.9Zm0,2.208a11.624,11.624,0,0,1,11.611,11.611v82.919a11.625,11.625,0,0,1-11.611,11.611h-345.5a11.624,11.624,0,0,1-11.611-11.611V470.716A11.625,11.625,0,0,1,237.874,459.1Z" transform="translate(686.132 125.173)" fill="#404041" fill-rule="evenodd"/>
    <path id="Caminho_31" data-name="Caminho 31" d="M263.189,479.5A14.3,14.3,0,0,0,276.9,463.5,15.009,15.009,0,0,0,263.189,479.5ZM235.07,501.644c-.873-11.776,3.439-18.613,11.329-21.6,9.52-3.618,15.49,4.127,21.413,1.011a20.1,20.1,0,0,1,5.386-1.781,17.886,17.886,0,0,1,17.2,6.245,15.586,15.586,0,0,0,1.589,27.514c-1.665,5.193-8.591,17.966-14.919,17.815a38.621,38.621,0,0,1-8.419-2.146,11.178,11.178,0,0,0-9.629.482c-7.044,2.18-8.468,2.6-14.39-3.536a40.672,40.672,0,0,1-9.555-24Z" transform="translate(705.362 136.835)" fill="#404041" fill-rule="evenodd"/>
    <path id="Caminho_13629" data-name="Caminho 13629" d="M68.131,50.847V10.636h6.025l.268,2.944a9.581,9.581,0,0,1,7.814-3.495,9.909,9.909,0,0,1,8.343,3.963,17.746,17.746,0,0,1,3.027,11.005v.406l-.006-.007a17.372,17.372,0,0,1-3.061,10.765,10.651,10.651,0,0,1-15.883.874V50.847Zm6.527-32.095v12.9a6.069,6.069,0,0,0,5.805,3.384,5.621,5.621,0,0,0,4.878-2.51,13.372,13.372,0,0,0,1.754-7.649H87.1A12.131,12.131,0,0,0,85.368,18a5.633,5.633,0,0,0-4.959-2.545q-.19-.012-.379-.012A6.013,6.013,0,0,0,74.658,18.752ZM38.3,50.847V10.636h6.026l.268,2.944a9.582,9.582,0,0,1,7.814-3.495,9.92,9.92,0,0,1,8.344,3.962,17.762,17.762,0,0,1,3.027,11.006v.406l-.007-.007a17.36,17.36,0,0,1-3.061,10.765,10.65,10.65,0,0,1-15.882.874V50.847Zm6.534-32.095v12.9a6.059,6.059,0,0,0,5.8,3.384,5.623,5.623,0,0,0,4.877-2.51,13.367,13.367,0,0,0,1.761-7.649A12.138,12.138,0,0,0,55.536,18a5.642,5.642,0,0,0-4.96-2.545q-.189-.012-.376-.012A6.006,6.006,0,0,0,44.833,18.752ZM125.621,40.22a19.05,19.05,0,0,1-7.8-1.576,13.062,13.062,0,0,1-5.5-4.333,10.812,10.812,0,0,1-1.98-6.452h6.8a6.319,6.319,0,0,0,2.2,5.152,9.635,9.635,0,0,0,6.307,1.823,8.378,8.378,0,0,0,5.338-1.438,4.613,4.613,0,0,0,1.781-3.789h0a4.7,4.7,0,0,0-1.815-3.968,21.936,21.936,0,0,0-6.535-2.828,31.3,31.3,0,0,1-7.525-3.17,10.064,10.064,0,0,1-5.345-8.771,9.526,9.526,0,0,1,3.858-7.793,15.59,15.59,0,0,1,10-3.061,16.985,16.985,0,0,1,7.277,1.507,11.977,11.977,0,0,1,5.021,4.292,11,11,0,0,1,1.823,6.19h-6.768a6.091,6.091,0,0,0-1.926-4.816,7.922,7.922,0,0,0-5.5-1.733,8.319,8.319,0,0,0-5.173,1.425,4.713,4.713,0,0,0-1.843,3.969,4.285,4.285,0,0,0,1.988,3.577,23.393,23.393,0,0,0,6.555,2.786,29.924,29.924,0,0,1,7.332,3.088,11.7,11.7,0,0,1,4.052,3.976,10.383,10.383,0,0,1,1.293,5.262,9.341,9.341,0,0,1-3.749,7.793,16.26,16.26,0,0,1-9.285,2.913Q126.062,40.244,125.621,40.22Zm36.909-4.113a15.73,15.73,0,0,1-3.694-10.923V24.86l.021.035a17.158,17.158,0,0,1,1.7-7.7,12.386,12.386,0,0,1,4.76-5.262,13.341,13.341,0,0,1,7.029-1.843,12.726,12.726,0,0,1,9.554,3.79,14.968,14.968,0,0,1,3.962,10.049v1.534a17.283,17.283,0,0,1-1.651,7.683,12.286,12.286,0,0,1-4.732,5.242,13.49,13.49,0,0,1-7.105,1.85c-.167.007-.334.01-.5.01A12.622,12.622,0,0,1,162.53,36.107Zm4.76-18.263a12.675,12.675,0,0,0-1.905,7.6,11.692,11.692,0,0,0,1.857,7.023,6.458,6.458,0,0,0,10.318-.034,12.928,12.928,0,0,0,1.844-7.566,11.561,11.561,0,0,0-1.9-6.981,6.038,6.038,0,0,0-5.144-2.579l-.187,0A5.961,5.961,0,0,0,167.29,17.844ZM211.222,36.32a14.214,14.214,0,0,1-3.858-10.414v-.8a17.364,17.364,0,0,1,1.686-7.772,12.789,12.789,0,0,1,4.712-5.338,12.38,12.38,0,0,1,6.769-1.905,11.376,11.376,0,0,1,9.168,3.8,16.029,16.029,0,0,1,3.24,10.731v2.642H213.953a8.652,8.652,0,0,0,2.4,5.66,7.234,7.234,0,0,0,5.31,2.064,8.842,8.842,0,0,0,7.305-3.611l3.522,3.357a11.691,11.691,0,0,1-4.67,4.044,14.514,14.514,0,0,1-6.535,1.438l-.007.021c-.183.007-.366.011-.548.011A13.5,13.5,0,0,1,211.222,36.32Zm4.946-19.129a9.8,9.8,0,0,0-2.105,5.262h12.43v-.488a7.994,7.994,0,0,0-1.741-4.98,5.428,5.428,0,0,0-4.251-1.672v-.006q-.093,0-.186,0A5.5,5.5,0,0,0,216.168,17.192ZM145.445,31.9V15.451H140.63V10.636h4.815V3.6h6.5v7.037h5.125v4.815h-5.125V31.67a3.548,3.548,0,0,0,.688,2.4,3.019,3.019,0,0,0,2.345.742,10.373,10.373,0,0,0,2.283-.267v5.042a15.97,15.97,0,0,1-4.3.612Q145.444,40.2,145.445,31.9ZM28.573,39.684l-3.2-9.073H10.221L7.051,39.684H0L14.768.573h6.094l14.8,39.11ZM12.119,25.108H23.455L17.788,8.869ZM190.278,39.677V10.629h6.19l.166,3.24a7.358,7.358,0,0,1,6.555-3.79,6.243,6.243,0,0,1,2.311.378l.007,6.108a16.812,16.812,0,0,0-2.655-.213,5.991,5.991,0,0,0-6.046,3.439V39.677Z" transform="translate(1017.01 627.85)" fill="#404041"/>
    <path id="Caminho_13630" data-name="Caminho 13630" d="M97.3,19.3a4.021,4.021,0,0,1-1.376-3.144,4.2,4.2,0,0,1,1.76-3.6,8.293,8.293,0,0,1,4.96-1.279h2.47V10.1a2.861,2.861,0,0,0-.791-2.126,3.206,3.206,0,0,0-2.345-.784,3.735,3.735,0,0,0-2.284.688,2.021,2.021,0,0,0-.914,1.657H96.23a3.514,3.514,0,0,1,.784-2.146A5.442,5.442,0,0,1,99.16,5.757a7.208,7.208,0,0,1,2.971-.606,5.859,5.859,0,0,1,4.018,1.28,4.592,4.592,0,0,1,1.506,3.529v6.83a8.391,8.391,0,0,0,.523,3.253v.22l-2.69-.006a5.324,5.324,0,0,1-.357-1.562,5.661,5.661,0,0,1-4.224,1.843c-.073,0-.146,0-.219,0A5.233,5.233,0,0,1,97.3,19.3Zm3.975-.929a4.4,4.4,0,0,0,2.264-.619,3.732,3.732,0,0,0,1.547-1.616V13.069H103.1q-4.658,0-4.664,2.751a2.329,2.329,0,0,0,.791,1.878,3.037,3.037,0,0,0,2.049.66Zm-49.49.929a4.027,4.027,0,0,1-1.376-3.144,4.2,4.2,0,0,1,1.761-3.6,8.293,8.293,0,0,1,4.96-1.279H59.6V10.1a2.861,2.861,0,0,0-.791-2.126,3.208,3.208,0,0,0-2.345-.784,3.733,3.733,0,0,0-2.284.688,2.021,2.021,0,0,0-.914,1.657H50.715A3.519,3.519,0,0,1,51.5,7.394a5.44,5.44,0,0,1,2.146-1.636,7.182,7.182,0,0,1,2.971-.606,5.859,5.859,0,0,1,4.018,1.28A4.6,4.6,0,0,1,62.141,9.96v6.83a8.374,8.374,0,0,0,.523,3.253v.22l-2.69-.006a5.324,5.324,0,0,1-.357-1.562,5.661,5.661,0,0,1-4.224,1.843c-.073,0-.146,0-.219,0A5.234,5.234,0,0,1,51.788,19.3Zm1.135-3.495a2.336,2.336,0,0,0,.791,1.878,3.046,3.046,0,0,0,2.05.674h0a4.392,4.392,0,0,0,2.263-.618,3.724,3.724,0,0,0,1.548-1.616V13.055H57.587Q52.93,13.055,52.923,15.807ZM17.5,19.3a4.024,4.024,0,0,1-1.376-3.143,4.2,4.2,0,0,1,1.761-3.6,8.292,8.292,0,0,1,4.959-1.279h2.47V10.1a2.861,2.861,0,0,0-.791-2.126,3.21,3.21,0,0,0-2.345-.784,3.732,3.732,0,0,0-2.283.688,2.022,2.022,0,0,0-.915,1.657H16.426a3.514,3.514,0,0,1,.784-2.146,5.434,5.434,0,0,1,2.146-1.637,7.211,7.211,0,0,1,2.971-.606,5.859,5.859,0,0,1,4.018,1.28A4.6,4.6,0,0,1,27.851,9.96v6.83a8.374,8.374,0,0,0,.523,3.253v.22l-2.69-.006a5.325,5.325,0,0,1-.357-1.561A5.663,5.663,0,0,1,21.1,20.539c-.073,0-.146,0-.219,0A5.23,5.23,0,0,1,17.5,19.3Zm3.975-.928a4.391,4.391,0,0,0,2.264-.619,3.729,3.729,0,0,0,1.548-1.616V13.069H23.3q-4.664,0-4.664,2.751a2.335,2.335,0,0,0,.791,1.878,3.037,3.037,0,0,0,2.049.66ZM6.92,20.306,0,20.257V.31H6.528a7.575,7.575,0,0,1,4.891,1.376,4.854,4.854,0,0,1,1.637,3.982,4.037,4.037,0,0,1-.8,2.476,5.126,5.126,0,0,1-2.166,1.672,4.622,4.622,0,0,1,2.559,1.719,4.935,4.935,0,0,1,.935,3.019,5.332,5.332,0,0,1-1.74,4.217,7.2,7.2,0,0,1-4.459,1.549Q7.153,20.321,6.92,20.306ZM2.634,18.1H6.981a4.207,4.207,0,0,0,2.9-.942,3.33,3.33,0,0,0,1.066-2.607q0-3.583-3.928-3.577l-4.388-.006Zm0-9.3H6.611a4.187,4.187,0,0,0,2.751-.866A2.9,2.9,0,0,0,10.4,5.593,2.849,2.849,0,0,0,9.437,3.2a4.715,4.715,0,0,0-2.923-.75H2.621ZM81.392,20.284V5.427H83.8l.076,1.857a5.407,5.407,0,0,1,4.443-2.138q4.7,0,4.747,5.31v9.8H90.527V10.441a3.385,3.385,0,0,0-.736-2.365,2.927,2.927,0,0,0-2.243-.77,3.68,3.68,0,0,0-2.166.688A4.453,4.453,0,0,0,83.93,9.719V20.284ZM65.51,20.257V5.428h2.47l.041,1.712a3.948,3.948,0,0,1,3.535-1.988,2.6,2.6,0,0,1,1.129.193V7.683a7.677,7.677,0,0,0-1.245-.1,3.345,3.345,0,0,0-3.391,2.126V20.257Zm-19.61,0-3.439-5.55-3.44,5.55h-2.95l5.008-7.5L36.215,5.428h2.938L42.44,10.84l3.288-5.413h2.965L43.829,12.76l5.008,7.5Zm-11.921,0h.007Zm-2.538,0V5.427h2.538v14.83Zm.165-17.746a1.488,1.488,0,0,1-.365-1.024l-.006-.007A1.544,1.544,0,0,1,31.607.427a1.686,1.686,0,0,1,2.242,0,1.509,1.509,0,0,1,.385,1.053,1.569,1.569,0,0,1-2.628,1.031Z" transform="translate(1021.336 599.547)" fill="#404041"/>
  </g>
</svg>
