<svg xmlns="http://www.w3.org/2000/svg" width="373.155" height="110.564" viewBox="0 0 373.155 110.564">
  <g id="Grupo_4" data-name="Grupo 4" transform="translate(-1320.347 -582.056)">
    <path id="Caminho_49" data-name="Caminho 49" d="M13.819,0h345.51a13.819,13.819,0,0,1,13.819,13.819V96.744a13.819,13.819,0,0,1-13.819,13.819H13.819A13.819,13.819,0,0,1,0,96.744V13.819A13.819,13.819,0,0,1,13.819,0Z" transform="translate(1320.347 582.057)" fill="#040505" opacity="0"/>
    <path id="Caminho_1" data-name="Caminho 1" d="M583.377,357.591h-345.5a13.86,13.86,0,0,0-13.819,13.819v82.919a13.86,13.86,0,0,0,13.819,13.819h345.5A13.859,13.859,0,0,0,597.2,454.329V371.41a13.86,13.86,0,0,0-13.819-13.819Zm0,2.208a11.624,11.624,0,0,1,11.611,11.61v82.919a11.625,11.625,0,0,1-11.611,11.611h-345.5a11.625,11.625,0,0,1-11.611-11.611V371.41A11.625,11.625,0,0,1,237.874,359.8Z" transform="translate(1096.306 224.465)" fill="#404041" fill-rule="evenodd"/>
    <path id="Caminho_13627" data-name="Caminho 13627" d="M.551,12.236V-3.686h4.53a4.951,4.951,0,0,1,3.275,1.01A3.266,3.266,0,0,1,9.567-.044,3.872,3.872,0,0,1,8.834,2.31,3.952,3.952,0,0,1,6.813,3.731v.044A4.051,4.051,0,0,1,9.389,4.991a3.74,3.74,0,0,1,.966,2.67A4.163,4.163,0,0,1,8.889,10.97a5.455,5.455,0,0,1-3.7,1.266ZM2.416-2V3.142h1.91A3.627,3.627,0,0,0,6.735,2.4,2.571,2.571,0,0,0,7.612.322Q7.612-2,4.559-2Zm0,6.817v5.729H4.948A3.793,3.793,0,0,0,7.5,9.771a2.662,2.662,0,0,0,.9-2.132q0-2.82-3.842-2.82Zm19.292,7.417H19.887V10.459h-.044a3.812,3.812,0,0,1-3.5,2.043,3.738,3.738,0,0,1-2.659-.9,3.116,3.116,0,0,1-.96-2.387q0-3.187,3.753-3.709l3.409-.477q0-2.9-2.343-2.9a5.6,5.6,0,0,0-3.708,1.4V1.666A7.046,7.046,0,0,1,17.7.6q4.008,0,4.008,4.241ZM19.887,6.484l-2.743.378a4.453,4.453,0,0,0-1.91.627,1.809,1.809,0,0,0-.644,1.593,1.735,1.735,0,0,0,.594,1.36,2.3,2.3,0,0,0,1.582.527A2.923,2.923,0,0,0,19,10.021a3.392,3.392,0,0,0,.883-2.4ZM26.3-2.021a1.154,1.154,0,0,1-.833-.333,1.124,1.124,0,0,1-.344-.844,1.142,1.142,0,0,1,.344-.849,1.144,1.144,0,0,1,.833-.339,1.176,1.176,0,0,1,.849.339,1.133,1.133,0,0,1,.35.849,1.125,1.125,0,0,1-.35.833A1.166,1.166,0,0,1,26.3-2.021Zm.888,14.257H25.366V.866h1.821ZM39.406.866l-3.82,5.752,3.753,5.618H37.219L34.987,8.55q-.211-.344-.5-.866h-.044q-.056.1-.522.866l-2.276,3.686h-2.1l3.875-5.574L29.713.866h2.121l2.2,3.886q.244.433.477.888h.044L37.4.866Zm11.5,6.14H42.876A4.253,4.253,0,0,0,43.9,9.938a3.521,3.521,0,0,0,2.687,1.033A5.586,5.586,0,0,0,50.115,9.7v1.71A6.6,6.6,0,0,1,46.151,12.5a4.806,4.806,0,0,1-3.786-1.549A6.34,6.34,0,0,1,40.988,6.6a6.217,6.217,0,0,1,1.5-4.325A4.824,4.824,0,0,1,46.229.6a4.275,4.275,0,0,1,3.453,1.443A6.018,6.018,0,0,1,50.9,6.051ZM49.038,5.463a3.7,3.7,0,0,0-.761-2.454A2.591,2.591,0,0,0,46.2,2.132a2.941,2.941,0,0,0-2.187.922A4.182,4.182,0,0,0,42.9,5.463Zm13.168,5.13h-.044v6.873H60.341V.866h1.821v2h.044A4.306,4.306,0,0,1,66.137.6a4.164,4.164,0,0,1,3.431,1.527A6.323,6.323,0,0,1,70.8,6.218a7.047,7.047,0,0,1-1.388,4.569,4.621,4.621,0,0,1-3.8,1.715A3.8,3.8,0,0,1,62.206,10.593Zm-.044-4.586V7.595a3.381,3.381,0,0,0,.916,2.393A3.268,3.268,0,0,0,68,9.7a5.807,5.807,0,0,0,.938-3.52,4.584,4.584,0,0,0-.877-2.976,2.9,2.9,0,0,0-2.376-1.077,3.226,3.226,0,0,0-2.554,1.1A4.056,4.056,0,0,0,62.162,6.007Zm19.914,6.229H80.254V10.459H80.21a3.812,3.812,0,0,1-3.5,2.043,3.738,3.738,0,0,1-2.659-.9,3.116,3.116,0,0,1-.96-2.387q0-3.187,3.753-3.709l3.409-.477q0-2.9-2.343-2.9a5.6,5.6,0,0,0-3.709,1.4V1.666A7.046,7.046,0,0,1,78.067.6q4.008,0,4.008,4.241ZM80.254,6.484l-2.743.378a4.453,4.453,0,0,0-1.91.627,1.809,1.809,0,0,0-.644,1.593,1.735,1.735,0,0,0,.594,1.36,2.3,2.3,0,0,0,1.582.527,2.923,2.923,0,0,0,2.237-.949,3.392,3.392,0,0,0,.883-2.4ZM91.663,2.709a2.227,2.227,0,0,0-1.377-.366,2.324,2.324,0,0,0-1.949,1.1,5.082,5.082,0,0,0-.783,3v5.8H85.733V.866h1.821V3.209H87.6a3.97,3.97,0,0,1,1.188-1.871A2.709,2.709,0,0,1,90.575.666a2.973,2.973,0,0,1,1.088.155Zm10.342,9.527h-1.821V10.459h-.044a3.812,3.812,0,0,1-3.5,2.043,3.738,3.738,0,0,1-2.659-.9,3.116,3.116,0,0,1-.96-2.387q0-3.187,3.753-3.709l3.409-.477q0-2.9-2.343-2.9a5.6,5.6,0,0,0-3.709,1.4V1.666A7.046,7.046,0,0,1,98,.6q4.008,0,4.008,4.241Zm-1.821-5.752-2.743.378a4.453,4.453,0,0,0-1.91.627,1.809,1.809,0,0,0-.644,1.593,1.735,1.735,0,0,0,.594,1.36,2.3,2.3,0,0,0,1.582.527,2.923,2.923,0,0,0,2.237-.949,3.392,3.392,0,0,0,.883-2.4Z" transform="translate(1429.469 604.038)" fill="#404041"/>
    <path id="Caminho_13632" data-name="Caminho 13632" d="M165.406,32.479V28.615a10.658,10.658,0,0,0,6.478,2.174q4.743,0,4.743-3.162a2.742,2.742,0,0,0-.406-1.526,4.039,4.039,0,0,0-1.1-1.109,8.441,8.441,0,0,0-1.625-.868q-.933-.385-2.01-.8a25.635,25.635,0,0,1-2.624-1.2,7.918,7.918,0,0,1-1.889-1.361,5.081,5.081,0,0,1-1.142-1.724,6.11,6.11,0,0,1-.384-2.262,5.373,5.373,0,0,1,.725-2.8,6.412,6.412,0,0,1,1.932-2.042,9,9,0,0,1,2.756-1.241,12.227,12.227,0,0,1,3.195-.418,12.907,12.907,0,0,1,5.227,1.011v3.645a10.186,10.186,0,0,0-5.71-1.625,6.668,6.668,0,0,0-1.822.23,4.464,4.464,0,0,0-1.394.648,3,3,0,0,0-.9,1,2.64,2.64,0,0,0-.318,1.284,3.09,3.09,0,0,0,.318,1.471A3.241,3.241,0,0,0,170.39,19a7.148,7.148,0,0,0,1.494.835q.878.373,2,.812a27.655,27.655,0,0,1,2.679,1.175,9.161,9.161,0,0,1,2.02,1.362,5.31,5.31,0,0,1,1.284,1.745,5.626,5.626,0,0,1,.45,2.35,5.538,5.538,0,0,1-.735,2.9,6.305,6.305,0,0,1-1.966,2.042,8.984,8.984,0,0,1-2.832,1.208,13.983,13.983,0,0,1-3.361.4A12.759,12.759,0,0,1,165.406,32.479Zm-56.054-1.812a11.669,11.669,0,0,1-2.976-8.356q0-5.666,3.1-8.851a11.132,11.132,0,0,1,8.366-3.184,10.084,10.084,0,0,1,7.851,3.1q2.823,3.1,2.822,8.586a12.083,12.083,0,0,1-3.042,8.62,10.656,10.656,0,0,1-8.158,3.239A10.431,10.431,0,0,1,109.352,30.668Zm2.733-15a9.7,9.7,0,0,0-2.02,6.511,9.168,9.168,0,0,0,2.042,6.3,6.941,6.941,0,0,0,5.468,2.306,6.58,6.58,0,0,0,5.368-2.262,9.814,9.814,0,0,0,1.878-6.434,9.985,9.985,0,0,0-1.878-6.5,6.552,6.552,0,0,0-5.368-2.283A6.851,6.851,0,0,0,112.085,15.669ZM82.428,30.8q-2.537-3.02-2.536-8.224A13.476,13.476,0,0,1,82.7,13.638a9.27,9.27,0,0,1,7.488-3.361,7.208,7.208,0,0,1,6.742,3.646h.088V0h3.6V33.292h-3.6V29.471h-.088a8.313,8.313,0,0,1-7.73,4.349A8.4,8.4,0,0,1,82.428,30.8Zm3.041-15.076A10.584,10.584,0,0,0,83.581,22.4a9.519,9.519,0,0,0,1.812,6.138,5.919,5.919,0,0,0,4.864,2.251,6.153,6.153,0,0,0,4.887-2.174,8.1,8.1,0,0,0,1.877-5.49V19.808a6.433,6.433,0,0,0-1.8-4.612,6.04,6.04,0,0,0-4.567-1.888A6.218,6.218,0,0,0,85.469,15.724Zm66.649,17.568-4.633-16.1a10.551,10.551,0,0,1-.352-2.086h-.087a9.864,9.864,0,0,1-.462,2.043l-5.028,16.141h-3.6L131.147,10.8h3.777l4.656,16.909a10.243,10.243,0,0,1,.307,2.021h.176a9.414,9.414,0,0,1,.4-2.065L145.641,10.8h3.294l4.656,16.953a12.04,12.04,0,0,1,.329,2.021h.176a9.366,9.366,0,0,1,.374-2.021L159.036,10.8h3.558l-6.742,22.487Zm-81.077,0V20.467q0-7.159-5.226-7.159a5.67,5.67,0,0,0-4.469,2.031,7.53,7.53,0,0,0-1.768,5.127V33.292h-3.6V10.8h3.6v3.733h.088a8.116,8.116,0,0,1,7.378-4.261,6.88,6.88,0,0,1,5.644,2.383q1.955,2.383,1.955,6.884V33.292Zm-25.957,0V10.8h3.6V33.292Zm-17.415,0L21.191,10.277a14.406,14.406,0,0,1-.5-3.206H20.6a16.322,16.322,0,0,1-.572,3.163L13.505,33.292H9.223L0,1.8H4.063l6.7,24.156a15.912,15.912,0,0,1,.527,3.163h.11a18.642,18.642,0,0,1,.68-3.163L19.04,1.8h3.536l6.675,24.332a17.744,17.744,0,0,1,.527,2.943h.087a17.735,17.735,0,0,1,.593-3.03L36.894,1.8h4L32,33.292ZM186.354,13.748l-1.886,3.043-1.033-.707,2.178-2.864-3.2-.742.371-1.179,3.122,1.123L185.68,8.9h1.3l-.2,3.526,3.077-1.123.382,1.179-3.178.742,2.19,2.864-1.044.707ZM45.283,4.436A2.222,2.222,0,0,1,44.6,2.767,2.307,2.307,0,0,1,46.93.418a2.324,2.324,0,0,1,1.679.67A2.239,2.239,0,0,1,49.3,2.767a2.223,2.223,0,0,1-.692,1.647,2.4,2.4,0,0,1-3.326.023Z" transform="translate(1431.253 629.53)" fill="#404041" stroke="#404041" stroke-width="1"/>
    <path id="Caminho_13631" data-name="Caminho 13631" d="M58.73,64.914h0l-33.47-6.855V33.884l34.055.37-.008,30.067A.586.586,0,0,1,58.73,64.914ZM22.373,57.468h0l-20.5-4.2a.586.586,0,0,1-.577-.593V33.625l21.074.228V57.467ZM1.3,31.146h0V11.989a.586.586,0,0,1,.577-.593l20.5-4.107V30.953L1.3,31.146Zm23.961-.219v0h0V6.71L58.746,0a.586.586,0,0,1,.577.593l-.008,30.021Z" transform="translate(1352.434 604.519)" fill="#2b80da"/>
  </g>
</svg>
