<svg xmlns="http://www.w3.org/2000/svg" xmlns:xlink="http://www.w3.org/1999/xlink" width="373.155" height="110.563" viewBox="0 0 373.155 110.563">
  <defs>
    <linearGradient id="linear-gradient" x1="0.781" y1="0.5" x2="-1.521" y2="0.5" gradientUnits="objectBoundingBox">
      <stop offset="0" stop-color="#ffd800"/>
      <stop offset="1" stop-color="#f98608"/>
    </linearGradient>
    <linearGradient id="linear-gradient-2" x1="0.758" y1="0.312" x2="-0.394" y2="1.79" gradientUnits="objectBoundingBox">
      <stop offset="0" stop-color="#e82c36"/>
      <stop offset="1" stop-color="#b3005a"/>
    </linearGradient>
    <linearGradient id="linear-gradient-3" x1="-0.399" y1="-0.796" x2="0.541" y2="0.41" gradientUnits="objectBoundingBox">
      <stop offset="0" stop-color="#2e8e5b"/>
      <stop offset="0.39" stop-color="#4da157"/>
      <stop offset="0.768" stop-color="#66b054"/>
      <stop offset="1" stop-color="#6fb653"/>
    </linearGradient>
  </defs>
  <g id="Grupo_2" data-name="Grupo 2" transform="translate(-500 -582.056)">
    <path id="Caminho_49" data-name="Caminho 49" d="M13.819,0h345.51a13.819,13.819,0,0,1,13.819,13.819V96.744a13.819,13.819,0,0,1-13.819,13.819H13.819A13.819,13.819,0,0,1,0,96.744V13.819A13.819,13.819,0,0,1,13.819,0Z" transform="translate(500 582.056)" fill="#040505" opacity="0"/>
    <path id="Caminho_1" data-name="Caminho 1" d="M583.377,357.591h-345.5a13.86,13.86,0,0,0-13.819,13.819v82.919a13.86,13.86,0,0,0,13.819,13.819h345.5A13.859,13.859,0,0,0,597.2,454.329V371.41a13.86,13.86,0,0,0-13.819-13.819Zm0,2.208a11.624,11.624,0,0,1,11.611,11.61v82.919a11.625,11.625,0,0,1-11.611,11.611h-345.5a11.625,11.625,0,0,1-11.611-11.611V371.41A11.625,11.625,0,0,1,237.874,359.8Z" transform="translate(275.959 224.465)" fill="#404041" fill-rule="evenodd"/>
    <path id="Caminho_2" data-name="Caminho 2" d="M447.042,410.437H452.2V375.88h-5.159v34.55ZM493.5,388.33l-5.915,14.981h-.179L481.27,388.33h-5.558l9.2,20.938-5.248,11.645h5.379l14.177-32.583Zm-29.247,18.18c-1.692,0-4.045-.846-4.045-2.93,0-2.669,2.937-3.687,5.469-3.687a9.194,9.194,0,0,1,4.712,1.155,6.253,6.253,0,0,1-6.136,5.469Zm.619-18.936a9.685,9.685,0,0,0-9.2,5.289l4.574,1.913a4.891,4.891,0,0,1,4.712-2.531,4.966,4.966,0,0,1,5.42,4.45v.358a11.4,11.4,0,0,0-5.379-1.334c-4.932,0-9.96,2.71-9.96,7.78a7.986,7.986,0,0,0,8.577,7.6,7.285,7.285,0,0,0,6.583-3.378h.179v2.669h4.98V397.134a9.478,9.478,0,0,0-10.489-9.561ZM433,392.532h-7.333V380.688H433a5.922,5.922,0,1,1,0,11.844Zm-.131-16.653H420.485v34.55h5.152V397.361h7.2a10.744,10.744,0,1,0,0-21.461Zm-67.409,30.636a7.181,7.181,0,1,1,6.293-7.126,7.154,7.154,0,0,1-6.293,7.126Zm5.922-16.254H371.2a8.157,8.157,0,0,0-6.19-2.627,11.769,11.769,0,0,0,0,23.51,8.019,8.019,0,0,0,6.19-2.669h.179v1.692c0,4.5-2.407,6.878-6.28,6.878a6.508,6.508,0,0,1-5.922-4.182l-4.5,1.871a11.2,11.2,0,0,0,10.421,6.947,10.745,10.745,0,0,0,11.178-12.243v-21.1h-4.9v1.912Zm8.461,20.175h5.166V375.88H379.84v34.55Zm12.78-11.4a6.452,6.452,0,0,1,6.143-6.878,4.546,4.546,0,0,1,4.367,2.5l-10.51,4.361Zm16.034-3.914a10.923,10.923,0,0,0-10.063-7.484A11.171,11.171,0,0,0,387.5,399.4,11.508,11.508,0,0,0,399.2,411.152a11.693,11.693,0,0,0,9.8-5.207l-4.01-2.669a6.712,6.712,0,0,1-5.792,3.254,5.977,5.977,0,0,1-5.7-3.563l15.717-6.5-.536-1.334Zm-125.236-3.872v4.987h11.934a10.408,10.408,0,0,1-2.751,6.28,12.217,12.217,0,0,1-9.217,3.652,13.272,13.272,0,1,1,0-26.544,12.724,12.724,0,0,1,9,3.563l3.515-3.521a17.4,17.4,0,0,0-12.512-5.028,18.255,18.255,0,1,0,0,36.511,16.686,16.686,0,0,0,12.739-5.124,16.509,16.509,0,0,0,4.32-11.694,16.129,16.129,0,0,0-.268-3.116Zm30.623,15.277a7.147,7.147,0,1,1,6.637-7.126,6.8,6.8,0,0,1-6.637,7.126Zm0-18.881a11.755,11.755,0,1,0,11.8,11.755,11.59,11.59,0,0,0-11.8-11.755Zm25.746,18.881a7.147,7.147,0,1,1,6.631-7.126,6.8,6.8,0,0,1-6.631,7.126Zm0-18.881a11.755,11.755,0,1,0,11.8,11.755,11.583,11.583,0,0,0-11.789-11.769Z" transform="translate(348.544 254.546)" fill="#404041" fill-rule="evenodd"/>
    <g id="Grupo_1" data-name="Grupo 1">
      <path id="Caminho_3" data-name="Caminho 3" d="M235.315,365.271a5.5,5.5,0,0,0-1.279,3.88v61.08a5.5,5.5,0,0,0,1.279,3.88l.206.2L269.734,400.1v-.812l-34.213-34.213Z" transform="translate(293.534 237.682)" fill="#42bff2" fill-rule="evenodd"/>
      <path id="Caminho_4" data-name="Caminho 4" d="M258.346,396.939l-11.4-11.4v-.812l11.4-11.4.255.145,13.516,7.676a4.2,4.2,0,0,1,0,7.972L258.6,396.788Z" transform="translate(316.333 252.215)" fill-rule="evenodd" fill="url(#linear-gradient)"/>
      <path id="Caminho_5" data-name="Caminho 5" d="M280.575,389.28l-11.693-11.693-34.392,34.392a4.491,4.491,0,0,0,5.737.172Z" transform="translate(294.359 259.723)" fill-rule="evenodd" fill="url(#linear-gradient-2)"/>
      <path id="Caminho_6" data-name="Caminho 6" d="M280.569,388.615,240.227,365.69a4.491,4.491,0,0,0-5.737.172l34.392,34.392Z" transform="translate(294.365 237.056)" fill-rule="evenodd" fill="url(#linear-gradient-3)"/>
    </g>
    <path id="Caminho_13628" data-name="Caminho 13628" d="M154.091,19.164a9.237,9.237,0,0,1,0-12.684,8.859,8.859,0,0,1,12.546,0,9.2,9.2,0,0,1,0,12.67l-.186-.179h0l.2.192a8.887,8.887,0,0,1-12.559,0ZM164.683,17.4a6.8,6.8,0,0,0,0-9.135,6.1,6.1,0,0,0-8.618,0,6.8,6.8,0,0,0,0,9.135l-.2.2.2-.2A6.1,6.1,0,0,0,164.683,17.4ZM50.674,19.164a9.237,9.237,0,0,1,0-12.684,8.859,8.859,0,0,1,12.546,0,9.211,9.211,0,0,1,0,12.67l-.179-.172,0,0,.189.182a8.879,8.879,0,0,1-12.553,0ZM61.259,17.4a6.8,6.8,0,0,0,0-9.135,6.1,6.1,0,0,0-8.619,0,6.8,6.8,0,0,0,0,9.135l-.188.188.188-.188A6.1,6.1,0,0,0,61.259,17.4Zm-33.9,4.333V21.5h-.014l-.027.212a6.466,6.466,0,0,1-3.687-1.225,5.74,5.74,0,0,1-2.373-3.473l-.055-.234.22-.089,2.242-.908.083.31a4.122,4.122,0,0,0,1.335,2.167,3.327,3.327,0,0,0,2.242.873,3.609,3.609,0,0,0,2.208-.688A2.062,2.062,0,0,0,30.4,16.68a2.255,2.255,0,0,0-.874-1.925A10,10,0,0,0,26.5,13.378a8.594,8.594,0,0,1-3.439-1.858,4.039,4.039,0,0,1-1.218-3.012,4.405,4.405,0,0,1,1.5-3.308,5.457,5.457,0,0,1,3.873-1.375,5.608,5.608,0,0,1,3.6,1.113,5.139,5.139,0,0,1,1.8,2.435l.076.24-.234.1L30.23,8.64l-.082-.311a2.622,2.622,0,0,0-.936-1.314h0a2.963,2.963,0,0,0-1.946-.606,3,3,0,0,0-1.926.619,1.811,1.811,0,0,0-.764,1.486,1.643,1.643,0,0,0,.689,1.375,7.346,7.346,0,0,0,2.263,1.1,19.646,19.646,0,0,1,2.064.778A9.665,9.665,0,0,1,31.3,12.78a4.224,4.224,0,0,1,1.375,1.637,5.209,5.209,0,0,1,.454,2.236,4.8,4.8,0,0,1-.53,2.283,4.307,4.307,0,0,1-1.375,1.61,6.759,6.759,0,0,1-1.843.88,6.866,6.866,0,0,1-2.012.3Zm-22-.282H.282v-.3H.275v.275H0V4.292H5.351a8.515,8.515,0,0,1,6.307,2.387,9.243,9.243,0,0,1,0,12.381,8.515,8.515,0,0,1-5.921,2.4Q5.545,21.456,5.351,21.447Zm-.021-2.634a5.985,5.985,0,1,0,0-11.955H2.662V18.813Zm113.446,2.593v0H118.5V4.271h2.683V18.82h7.181v2.586Zm-13.316,0V4.272H115.7v2.31h-.29l.29.007v.275H108.13v4.7h6.809v2.545H108.13V18.82H115.7v2.586Zm-10.414,0V21.4h-.158L88.855,4.265h2.951l4.35,12.9,4.551-12.893h2.95l-6.19,17.134Zm41-.006V4.265h3.027l7.657,12.254-.063-2.274V4.258h2.689V21.392H146.7L138.631,8.449l.065,2.343V21.385h-2.374V21.4Zm-51.025,0h-.274V4.265h2.682V21.4Zm-16.852,0V4.265h3.02l7.7,12.323-.065-2.343V4.258h2.683V21.392H78.854L70.782,8.449l.066,2.343V21.385H68.44V21.4Zm-32.508,0V4.265h5.929a5.5,5.5,0,0,1,3.831,1.472,5.1,5.1,0,0,1,0,7.47,5.506,5.506,0,0,1-3.831,1.479H38.347v6.438h0V21.4Zm5.978-9.292a2.474,2.474,0,0,0,1.947-.812,2.574,2.574,0,0,0,0-3.612,2.47,2.47,0,0,0-1.947-.818H38.347v5.242ZM16.735,21.385v0H16.46V4.252h2.683V21.385ZM84.769,3.522,86.2,0h2.978l-1.9,3.378-.24-.138-.006.005h0l.24.137-.083.138Z" transform="translate(613.996 596.865)" fill="#404041"/>
  </g>
</svg>
